inDegrees=no
num_controls=7
num_derivatives=13
num_iterations=82
num_multipliers=7
num_parameters=0
num_slacks=7
num_states=26
objective=0.453026
objective_accelerations=0.048344
objective_balance=0.001029
objective_effort=0.037586
objective_height=0.360434
objective_ligament=0.005634
solver_duration=905.412468
status=Solve_Succeeded
success=true
DataType=double
version=3
OpenSimVersion=4.5
endheader
time	/jointset/ground_pelvis/pelvis_tilt/value	/jointset/ground_pelvis/pelvis_tx/value	/jointset/ground_pelvis/pelvis_ty/value	/jointset/hip_r/hip_flexion_r/value	/jointset/hip_r/hip_adduction_r/value	/jointset/hip_r/hip_rotation_r/value	/jointset/back/lumbar_extension/value	/jointset/patellofemoral_r/patellar_flexion_r/value	/jointset/knee_r/knee_flexion_r/value	/jointset/knee_r/knee_adduction_r/value	/jointset/knee_r/knee_rotation_r/value	/jointset/ankle_r/ankle_angle_r/value	/jointset/subtalar_r/subtalar_angle_r/value	/jointset/ground_pelvis/pelvis_tilt/speed	/jointset/ground_pelvis/pelvis_tx/speed	/jointset/ground_pelvis/pelvis_ty/speed	/jointset/hip_r/hip_flexion_r/speed	/jointset/hip_r/hip_adduction_r/speed	/jointset/hip_r/hip_rotation_r/speed	/jointset/back/lumbar_extension/speed	/jointset/patellofemoral_r/patellar_flexion_r/speed	/jointset/knee_r/knee_flexion_r/speed	/jointset/knee_r/knee_adduction_r/speed	/jointset/knee_r/knee_rotation_r/speed	/jointset/ankle_r/ankle_angle_r/speed	/jointset/subtalar_r/subtalar_angle_r/speed	/forceset/tau_hip_flexion_r	/forceset/tau_hip_adduction_r	/forceset/tau_hip_rotation_r	/forceset/tau_knee_flexion_r	/forceset/tau_ankle_angle_r	/forceset/tau_subtalar_angle_r	/forceset/tau_lumbar_extension	lambda_cid13_p0	lambda_cid14_p0	lambda_cid14_p1	lambda_cid14_p2	lambda_cid14_p3	lambda_cid14_p4	lambda_cid14_p5	/jointset/ground_pelvis/pelvis_tilt/accel	/jointset/ground_pelvis/pelvis_tx/accel	/jointset/ground_pelvis/pelvis_ty/accel	/jointset/hip_r/hip_flexion_r/accel	/jointset/hip_r/hip_adduction_r/accel	/jointset/hip_r/hip_rotation_r/accel	/jointset/back/lumbar_extension/accel	/jointset/patellofemoral_r/patellar_flexion_r/accel	/jointset/knee_r/knee_flexion_r/accel	/jointset/knee_r/knee_adduction_r/accel	/jointset/knee_r/knee_rotation_r/accel	/jointset/ankle_r/ankle_angle_r/accel	/jointset/subtalar_r/subtalar_angle_r/accel	gamma_cid13_p0	gamma_cid14_p0	gamma_cid14_p1	gamma_cid14_p2	gamma_cid14_p3	gamma_cid14_p4	gamma_cid14_p5
0.5	-0.134214480355359	0.02308625371362562	0.805578508889578	0.8945571135966685	-0.2190098942798676	-0.1343720033153959	-0.6487080700843689	0.959976840420411	0.9599768404204166	-0.06677575271848032	0.1745274054211398	0.2948148427553607	0.1448961805211487	-0.3609333930470701	-0.2029754080998203	-0.5068041385684426	1.872518698228496	-0.03471605743845563	0.1924548907922189	-0.7333584889639968	1.943609475368963	1.943609475369083	-0.4166965197499407	-0.0002846958209463657	0.5327288672253538	0.1614153103867449	-0.1954662962818745	0.01659598987554827	0.0167658866443689	-0.2936276260462373	0.009834722387342705	-0.00408086769151822	0.2395610716360105	-8.303728959024314	-39.81596264199256	-8.525751521505867	1.532099179563788	-4.220741785635589	-641.4775384635146	56.55570262868321	0.3437686138367271	0.600562705099289	-0.4185522683804459	-1.27658239880413	-0.1790748411129927	-0.5369413633254674	1.846011616004747	-1.361156012180339	-1.361156012180425	0.4343427685742757	-0.02846629558226418	-0.5788517815725939	-0.3471550469845222	-8.614446696386713e-08	2.039833827933294e-08	1.345988170269893e-06	-1.235271929181514e-07	-1.478339027309838e-07	-1.591945698820873e-07	9.364621412056797e-07
0.51	-0.1378058609994704	0.0210867022725976	0.800490712891058	0.9132156118958314	-0.2193663607353962	-0.132475780953597	-0.6559487752687165	0.9793418688979598	0.9793418688978617	-0.07092087738931352	0.1745249081914675	0.3001121397710235	0.1464918981090284	-0.3572845511476482	-0.196918115248138	-0.5106409423295794	1.858929053821865	-0.03657730631603698	0.1868512222659509	-0.7147001944834968	1.929139355346111	1.929139355346083	-0.4122314821264761	-0.0002310271984296858	0.5266476819879691	0.1576775299905727	-0.2017815428699882	0.01769081000747072	0.01710879549399353	-0.2986944218399394	0.009104385580476985	-0.003850454576037728	0.245491763789815	-7.357981713944447	-40.38504513913265	-8.726612688952537	1.794039797522507	-4.175507572826834	-646.4786125818879	56.71102216252318	0.3841839179554116	0.610781825841486	-0.3491512348873303	-1.437926378110186	-0.1894892606482405	-0.562914489992664	1.88809137736254	-1.528457156118832	-1.528457156140982	0.4673595590350616	0.01999052405969533	-0.6352315730775542	-0.3943586118974677	-5.893038972686732e-08	1.022280853350764e-07	1.719075635051508e-06	5.357219291213638e-07	-2.286220710226191e-07	-1.181666331027629e-07	1.188230496000268e-06
0.52	-0.1413590048365973	0.01914821761021418	0.795367967493945	0.931730659567623	-0.2197414075496144	-0.1306337622556042	-0.6630004269056017	0.9985544927435205	0.9985544927433261	-0.07501839662395202	0.1745224890646263	0.3053461289986611	0.1480487840777537	-0.3532860316498032	-0.190762052370901	-0.5137940182870002	1.843828572754535	-0.03843212917631965	0.1816141580310706	-0.6955477794713995	1.913128548972012	1.913128548971836	-0.4071754325109088	-0.0002690752602665241	0.5200673096203381	0.153648986555842	-0.2080967894581041	0.01878563013939004	0.01745170434368151	-0.3037612176336346	0.008374048773610851	-0.003620041460561137	0.2514224559436172	-6.472212793286069	-40.95184783938112	-8.92095732044317	2.047955456595547	-4.157665054401467	-651.4578339448442	56.88788823472539	0.4137041335213487	0.6203167102102423	-0.2818067076372743	-1.578749730943784	-0.1777896376532464	-0.4636205050479084	1.944835722324178	-1.669293282429635	-1.669293282429773	0.5525451669948259	-0.04680963245298521	-0.6786892076218213	-0.4053076546962061	-5.110829913646249e-08	1.112914687958698e-07	1.688130502404268e-06	5.855489455296742e-07	-2.311110643951068e-07	-1.081404991512063e-07	1.195950719278482e-06
0.53	-0.1448704646178634	0.01727169445043496	0.790217142049409	0.9500873141998543	-0.2201348401276841	-0.128842726779339	-0.6698582015420703	1.017599361660944	1.017599361660916	-0.07906299778280984	0.1745193929542901	0.3105118680519107	0.1495641265847082	-0.3489492844032371	-0.1845346415299544	-0.5162529893042704	1.827259168118949	-0.04024489390619401	0.1766142352857564	-0.6759396239647472	1.89559055191947	1.895590551919499	-0.4016918357618366	-0.0003465428646311774	0.5130004417344077	0.1493833857685231	-0.214401154210533	0.01999444666166617	0.01770489516139388	-0.3087529858292622	0.007294231158954035	-0.003463451610639103	0.2572835369902777	-5.646992529200261	-41.64895263494807	-9.167542651871026	2.307187754592536	-3.95570282852142	-656.5381803547602	56.96397955181687	0.4521724563397028	0.6250974956347751	-0.2102506762298384	-1.732495864920342	-0.1814212936020961	-0.5150483248978828	1.978934043456441	-1.83424590573554	-1.834245905704684	0.5544323125263304	0.01249655397355074	-0.7327419117306795	-0.4422712572110049	-4.260497293711709e-08	1.191191847679217e-07	1.637589565901044e-06	6.229662863555398e-07	-2.311588915294538e-07	-9.846051673060879e-08	1.193700112977288e-06
0.54	-0.1483368544394424	0.01545767424398481	0.7850452652192088	0.9682709827787171	-0.2205460806336419	-0.1271010645636523	-0.6765178689077489	1.03646121201003	1.036461212010167	-0.08305112989744422	0.174515664543601	0.3156045271597703	0.1510357960904973	-0.3442720397120497	-0.178261461705089	-0.5180042954198609	1.809231362081191	-0.04199371475397289	0.1717395059154512	-0.6559263253132664	1.876524835304165	1.876524835304399	-0.3958816236662476	-0.0003955353329203955	0.5054513205423954	0.14491438632275	-0.2207055189629658	0.02120326318394211	0.01795808597909168	-0.3137447540248925	0.006214413544297071	-0.003306861760717542	0.2631446180369346	-4.882378964233732	-42.3443968157233	-9.40825567892996	2.559109645934682	-3.779816420649951	-661.6060612594871	57.05772023403146	0.4818036224456325	0.6294705069940238	-0.1402737273013302	-1.870430011378067	-0.1650008612341687	-0.4385818300461318	2.025864351289817	-1.974837194982329	-1.974837194982333	0.6178682362982033	-0.04111460523786295	-0.7751398688382131	-0.4459873863870743	-3.334793925553958e-08	1.255797792630683e-07	1.565368165557155e-06	6.466537733455088e-07	-2.285058538896877e-07	-8.916351047192341e-08	1.180417950545686e-06
